<svg width="50" height="50" xmlns="http://www.w3.org/2000/svg" xmlns:xlink="http://www.w3.org/1999/xlink"><defs><filter x="-6.7%" y="-3.3%" width="113.3%" height="113.3%" filterUnits="objectBoundingBox" id="a"><feOffset dy="1" in="SourceAlpha" result="shadowOffsetOuter1"/><feGaussianBlur stdDeviation=".5" in="shadowOffsetOuter1" result="shadowBlurOuter1"/><feColorMatrix values="0 0 0 0 1 0 0 0 0 1 0 0 0 0 1 0 0 0 0.4 0" in="shadowBlurOuter1"/></filter><filter x="-13.3%" y="-10%" width="126.7%" height="126.7%" filterUnits="objectBoundingBox" id="c"><feGaussianBlur stdDeviation="2" in="SourceAlpha" result="shadowBlurInner1"/><feOffset dy="2" in="shadowBlurInner1" result="shadowOffsetInner1"/><feComposite in="shadowOffsetInner1" in2="SourceAlpha" operator="arithmetic" k2="-1" k3="1" result="shadowInnerInner1"/><feColorMatrix values="0 0 0 0 0 0 0 0 0 0 0 0 0 0 0 0 0 0 0.2 0" in="shadowInnerInner1"/></filter><path d="M26.786 0H3.214A3.214 3.214 0 000 3.214v23.572A3.214 3.214 0 003.214 30h9.191V19.8H8.186V15h4.22v-3.659c0-4.162 2.477-6.46 6.272-6.46 1.817 0 3.718.323 3.718.323V9.29h-2.094c-2.064 0-2.707 1.28-2.707 2.594V15H22.2l-.737 4.8h-3.87V30h9.192A3.214 3.214 0 0030 26.786V3.214A3.214 3.214 0 0026.786 0z" id="b"/></defs><g transform="translate(10 10)" fill-rule="nonzero" fill="none"><use fill="#000" filter="url(#a)" xlink:href="#b"/><use fill="#3578E5" xlink:href="#b"/><use fill="#000" filter="url(#c)" xlink:href="#b"/></g></svg>