<svg width="50" height="50" xmlns="http://www.w3.org/2000/svg" xmlns:xlink="http://www.w3.org/1999/xlink"><defs><filter x="-6.7%" y="-3.3%" width="113.3%" height="113.3%" filterUnits="objectBoundingBox" id="a"><feOffset dy="1" in="SourceAlpha" result="shadowOffsetOuter1"/><feGaussianBlur stdDeviation=".5" in="shadowOffsetOuter1" result="shadowBlurOuter1"/><feColorMatrix values="0 0 0 0 1 0 0 0 0 1 0 0 0 0 1 0 0 0 0.4 0" in="shadowBlurOuter1"/></filter><filter x="-13.3%" y="-10%" width="126.7%" height="126.7%" filterUnits="objectBoundingBox" id="c"><feGaussianBlur stdDeviation="2" in="SourceAlpha" result="shadowBlurInner1"/><feOffset dy="2" in="shadowBlurInner1" result="shadowOffsetInner1"/><feComposite in="shadowOffsetInner1" in2="SourceAlpha" operator="arithmetic" k2="-1" k3="1" result="shadowInnerInner1"/><feColorMatrix values="0 0 0 0 0 0 0 0 0 0 0 0 0 0 0 0 0 0 0.2 0" in="shadowInnerInner1"/></filter><path d="M26.786 0H3.214A3.215 3.215 0 000 3.214v23.572A3.215 3.215 0 003.214 30h23.572A3.215 3.215 0 0030 26.786V3.214A3.215 3.215 0 0026.786 0zM23.51 10.634c.014.187.014.382.014.57 0 5.805-4.42 12.495-12.496 12.495-2.491 0-4.801-.724-6.743-1.97.355.041.696.054 1.058.054a8.805 8.805 0 005.45-1.875 4.398 4.398 0 01-4.104-3.046c.676.1 1.285.1 1.982-.08a4.392 4.392 0 01-3.516-4.313v-.054a4.389 4.389 0 001.982.556 4.383 4.383 0 01-1.955-3.656c0-.817.214-1.567.596-2.217a12.47 12.47 0 009.054 4.594c-.623-2.98 1.607-5.397 4.285-5.397 1.266 0 2.404.529 3.208 1.386a8.606 8.606 0 002.786-1.058 4.38 4.38 0 01-1.929 2.417 8.74 8.74 0 002.531-.683 9.244 9.244 0 01-2.203 2.277z" id="b"/></defs><g transform="translate(10 10)" fill-rule="nonzero" fill="none"><use fill="#000" filter="url(#a)" xlink:href="#b"/><use fill="#1DA1F2" xlink:href="#b"/><use fill="#000" filter="url(#c)" xlink:href="#b"/></g></svg>