<svg width="60" height="60" xmlns="http://www.w3.org/2000/svg"><path d="M53.571 0H6.43A6.43 6.43 0 000 6.429V53.57A6.43 6.43 0 006.429 60H53.57A6.43 6.43 0 0060 53.571V6.43A6.43 6.43 0 0053.571 0zm-6.549 21.268c.027.375.027.763.027 1.138 0 11.612-8.84 24.991-24.991 24.991A24.876 24.876 0 018.571 43.46c.71.08 1.393.107 2.117.107a17.61 17.61 0 0010.901-3.75 8.795 8.795 0 01-8.21-6.094c1.353.201 2.572.201 3.965-.16a8.784 8.784 0 01-7.032-8.626v-.107a8.778 8.778 0 003.965 1.112 8.765 8.765 0 01-3.91-7.313c0-1.633.428-3.133 1.191-4.433a24.94 24.94 0 0018.107 9.188c-1.245-5.96 3.214-10.795 8.572-10.795a8.752 8.752 0 016.415 2.773 17.212 17.212 0 005.571-2.116 8.76 8.76 0 01-3.857 4.834c1.768-.187 3.482-.683 5.063-1.366a18.489 18.489 0 01-4.407 4.554z" fill="#FFF" fill-rule="nonzero"/></svg>