<svg width="274" height="100" xmlns="http://www.w3.org/2000/svg" xmlns:xlink="http://www.w3.org/1999/xlink"><defs><filter x="-12.5%" y="-7.8%" width="125%" height="121.9%" filterUnits="objectBoundingBox" id="h"><feOffset dy="1" in="SourceAlpha" result="shadowOffsetOuter1"/><feGaussianBlur stdDeviation="1" in="shadowOffsetOuter1" result="shadowBlurOuter1"/><feColorMatrix values="0 0 0 0 1 0 0 0 0 1 0 0 0 0 1 0 0 0 0.8 0" in="shadowBlurOuter1"/></filter><filter x="-37.5%" y="-34.4%" width="175%" height="175%" filterUnits="objectBoundingBox" id="r"><feGaussianBlur stdDeviation="8" in="SourceAlpha" result="shadowBlurInner1"/><feOffset dy="4" in="shadowBlurInner1" result="shadowOffsetInner1"/><feComposite in="shadowOffsetInner1" in2="SourceAlpha" operator="arithmetic" k2="-1" k3="1" result="shadowInnerInner1"/><feColorMatrix values="0 0 0 0 0 0 0 0 0 0 0 0 0 0 0 0 0 0 0.8 0" in="shadowInnerInner1"/></filter><filter x="-2.6%" y="-9.4%" width="105.3%" height="126.3%" filterUnits="objectBoundingBox" id="a"><feOffset dy="2" in="SourceAlpha" result="shadowOffsetOuter1"/><feGaussianBlur stdDeviation="2" in="shadowOffsetOuter1" result="shadowBlurOuter1"/><feColorMatrix values="0 0 0 0 0 0 0 0 0 0 0 0 0 0 0 0 0 0 0.4 0" in="shadowBlurOuter1"/></filter><filter x="-10.9%" y="-7.8%" width="121.9%" height="121.9%" filterUnits="objectBoundingBox" id="p"><feOffset dy="1" in="SourceAlpha" result="shadowOffsetOuter1"/><feGaussianBlur stdDeviation="1" in="shadowOffsetOuter1" result="shadowBlurOuter1"/><feColorMatrix values="0 0 0 0 1 0 0 0 0 1 0 0 0 0 1 0 0 0 0.8 0" in="shadowBlurOuter1"/></filter><filter x="-37.5%" y="-39.3%" width="175%" height="185.7%" filterUnits="objectBoundingBox" id="o"><feGaussianBlur stdDeviation="8" in="SourceAlpha" result="shadowBlurInner1"/><feOffset dy="4" in="shadowBlurInner1" result="shadowOffsetInner1"/><feComposite in="shadowOffsetInner1" in2="SourceAlpha" operator="arithmetic" k2="-1" k3="1" result="shadowInnerInner1"/><feColorMatrix values="0 0 0 0 0 0 0 0 0 0 0 0 0 0 0 0 0 0 0.8 0" in="shadowInnerInner1"/></filter><filter x="-10.9%" y="-7.8%" width="121.9%" height="121.9%" filterUnits="objectBoundingBox" id="d"><feOffset dy="1" in="SourceAlpha" result="shadowOffsetOuter1"/><feGaussianBlur stdDeviation="1" in="shadowOffsetOuter1" result="shadowBlurOuter1"/><feColorMatrix values="0 0 0 0 1 0 0 0 0 1 0 0 0 0 1 0 0 0 0.8 0" in="shadowBlurOuter1"/></filter><filter x="-37.5%" y="-34.4%" width="175%" height="175%" filterUnits="objectBoundingBox" id="g"><feGaussianBlur stdDeviation="8" in="SourceAlpha" result="shadowBlurInner1"/><feOffset dy="4" in="shadowBlurInner1" result="shadowOffsetInner1"/><feComposite in="shadowOffsetInner1" in2="SourceAlpha" operator="arithmetic" k2="-1" k3="1" result="shadowInnerInner1"/><feColorMatrix values="0 0 0 0 0 0 0 0 0 0 0 0 0 0 0 0 0 0 0.8 0" in="shadowInnerInner1"/></filter><filter x="-10.9%" y="-8.9%" width="121.9%" height="125%" filterUnits="objectBoundingBox" id="l"><feOffset dy="1" in="SourceAlpha" result="shadowOffsetOuter1"/><feGaussianBlur stdDeviation="1" in="shadowOffsetOuter1" result="shadowBlurOuter1"/><feColorMatrix values="0 0 0 0 1 0 0 0 0 1 0 0 0 0 1 0 0 0 0.8 0" in="shadowBlurOuter1"/></filter><filter x="-42.9%" y="-34.4%" width="185.7%" height="175%" filterUnits="objectBoundingBox" id="k"><feGaussianBlur stdDeviation="8" in="SourceAlpha" result="shadowBlurInner1"/><feOffset dy="4" in="shadowBlurInner1" result="shadowOffsetInner1"/><feComposite in="shadowOffsetInner1" in2="SourceAlpha" operator="arithmetic" k2="-1" k3="1" result="shadowInnerInner1"/><feColorMatrix values="0 0 0 0 0 0 0 0 0 0 0 0 0 0 0 0 0 0 0.8 0" in="shadowInnerInner1"/></filter><path d="M47.176 91H37.42V68.248H13.012V91H3.256V38.944h9.756v22.392H37.42V38.944h9.756V91zM90.52 38.944v7.704H67.444v14.436h18.18v7.452h-18.18V83.26H90.52V91H57.688V38.944H90.52zM144.664 91h-7.488c-.84 0-1.53-.21-2.07-.63-.54-.42-.93-.942-1.17-1.566l-3.888-10.62h-21.564l-3.888 10.62c-.192.552-.57 1.056-1.134 1.512-.564.456-1.254.684-2.07.684h-7.524l20.448-52.056h9.9L144.664 91zm-33.696-19.656h16.596l-6.336-17.316a79.08 79.08 0 01-.954-2.718 66.246 66.246 0 01-1.026-3.402 119.948 119.948 0 01-.99 3.42 38.271 38.271 0 01-.954 2.772l-6.336 17.244zm49.068-.684V91h-9.684V38.944h15.876c3.552 0 6.594.366 9.126 1.098 2.532.732 4.608 1.758 6.228 3.078 1.62 1.32 2.808 2.898 3.564 4.734.756 1.836 1.134 3.858 1.134 6.066 0 1.752-.258 3.408-.774 4.968a14.377 14.377 0 01-2.232 4.248c-.972 1.272-2.172 2.388-3.6 3.348s-3.054 1.728-4.878 2.304c1.224.696 2.28 1.692 3.168 2.988L190.996 91h-8.712c-.84 0-1.554-.168-2.142-.504-.588-.336-1.086-.816-1.494-1.44l-10.944-16.668c-.408-.624-.858-1.068-1.35-1.332-.492-.264-1.218-.396-2.178-.396h-4.14zm0-6.948h6.048c1.824 0 3.414-.228 4.77-.684 1.356-.456 2.472-1.086 3.348-1.89a7.59 7.59 0 001.962-2.862c.432-1.104.648-2.316.648-3.636 0-2.64-.87-4.668-2.61-6.084-1.74-1.416-4.398-2.124-7.974-2.124h-6.192v17.28zm71.82-24.768V46.9h-15.66V91h-9.684V46.9H190.78v-7.956h41.076zm34.056 9.468c-.264.528-.57.9-.918 1.116-.348.216-.762.324-1.242.324s-1.02-.186-1.62-.558c-.6-.372-1.308-.786-2.124-1.242-.816-.456-1.77-.87-2.862-1.242s-2.382-.558-3.87-.558c-1.344 0-2.514.162-3.51.486-.996.324-1.836.774-2.52 1.35a5.395 5.395 0 00-1.53 2.07c-.336.804-.504 1.686-.504 2.646 0 1.224.342 2.244 1.026 3.06.684.816 1.59 1.512 2.718 2.088 1.128.576 2.412 1.092 3.852 1.548 1.44.456 2.91.942 4.41 1.458s2.97 1.116 4.41 1.8a15.283 15.283 0 013.852 2.592c1.128 1.044 2.034 2.322 2.718 3.834.684 1.512 1.026 3.348 1.026 5.508 0 2.352-.402 4.554-1.206 6.606a15.24 15.24 0 01-3.528 5.364c-1.548 1.524-3.438 2.724-5.67 3.6-2.232.876-4.788 1.314-7.668 1.314-1.656 0-3.288-.162-4.896-.486a25.772 25.772 0 01-4.626-1.386 24.154 24.154 0 01-4.14-2.16 20.372 20.372 0 01-3.438-2.808l2.808-4.644c.264-.336.582-.618.954-.846a2.33 2.33 0 011.242-.342c.6 0 1.248.246 1.944.738a58.789 58.789 0 002.466 1.638c.948.6 2.064 1.146 3.348 1.638 1.284.492 2.826.738 4.626.738 2.76 0 4.896-.654 6.408-1.962 1.512-1.308 2.268-3.186 2.268-5.634 0-1.368-.342-2.484-1.026-3.348-.684-.864-1.59-1.59-2.718-2.178-1.128-.588-2.412-1.086-3.852-1.494-1.44-.408-2.904-.852-4.392-1.332a37.873 37.873 0 01-4.392-1.728 14.228 14.228 0 01-3.852-2.628c-1.128-1.08-2.034-2.43-2.718-4.05-.684-1.62-1.026-3.618-1.026-5.994 0-1.896.378-3.744 1.134-5.544.756-1.8 1.86-3.396 3.312-4.788 1.452-1.392 3.234-2.508 5.346-3.348 2.112-.84 4.524-1.26 7.236-1.26 3.072 0 5.904.48 8.496 1.44 2.592.96 4.8 2.304 6.624 4.032l-2.376 4.572z" id="b"/><path d="M59.137.52a1.503 1.503 0 00-2.274 0L44.366 15.022a1.492 1.492 0 000 1.956L56.863 31.48c.6.693 1.674.693 2.274 0l12.497-14.502a1.492 1.492 0 000-1.956L59.137.52z" id="i"/><path d="M154.894 3.915c-3.425-2.92-8.519-2.394-11.662.85L142 6.033l-1.23-1.268c-3.138-3.244-8.238-3.77-11.663-.85-3.925 3.35-4.131 9.362-.619 12.993l12.094 12.487a1.96 1.96 0 002.83 0l12.094-12.487c3.52-3.631 3.313-9.644-.612-12.993z" id="m"/><path d="M23.219 10.569C25.194 5.525 21.48 0 16 0c-5.488 0-9.188 5.531-7.219 10.569C4.106 9.95 0 13.58 0 18.25a7.749 7.749 0 0013.5 5.194c-.006 2.294-.05 3.275-3.313 4.725A2.002 2.002 0 0011 32h10a2 2 0 001.956-1.587 2.006 2.006 0 00-1.143-2.244c-3.226-1.438-3.3-2.381-3.313-4.725A7.749 7.749 0 0032 18.25c0-4.675-4.113-8.3-8.781-7.681z" id="e"/><path d="M101.025.413a1.502 1.502 0 00-2.068 0c-3 2.863-11.608 11.152-12.958 12.646C84.793 14.39 84 16.147 84 18.097c0 4.407 3.43 7.89 7.716 7.908a7.74 7.74 0 005.779-2.557c-.007 2.288-.05 3.27-3.274 4.714-.88.394-1.387 1.35-1.168 2.288A2 2 0 0095.002 32h9.959c.968 0 1.824-.675 2.005-1.625a1.993 1.993 0 00-1.15-2.2c-3.223-1.439-3.298-2.382-3.31-4.727a7.735 7.735 0 005.953 2.55 7.722 7.722 0 007.541-7.75 7.71 7.71 0 00-2-5.195c-1.361-1.488-9.97-9.777-12.975-12.64z" id="q"/><linearGradient x1="50%" y1="0%" x2="50%" y2="100%" id="n"><stop stop-color="#444" offset="0%"/><stop stop-color="#666" offset="100%"/></linearGradient><linearGradient x1="50%" y1="0%" x2="50%" y2="100%" id="j"><stop stop-color="#444" offset="0%"/><stop stop-color="#666" offset="100%"/></linearGradient><linearGradient x1="50%" y1="0%" x2="50%" y2="100%" id="f"><stop stop-color="#444" offset="0%"/><stop stop-color="#666" offset="100%"/></linearGradient><linearGradient x1="50%" y1="0%" x2="50%" y2="100%" id="c"><stop stop-color="#FFF" offset="0%"/><stop stop-color="#CCC" offset="100%"/></linearGradient></defs><g fill-rule="nonzero" fill="none"><g transform="translate(2 2)"><use fill="#000" filter="url(#a)" xlink:href="#b"/><use fill="#FFF" xlink:href="#b"/><use fill="url(#c)" xlink:href="#b"/></g><g transform="translate(2 2)"><use fill="#000" filter="url(#d)" xlink:href="#e"/><use fill="url(#f)" xlink:href="#e"/><use fill="#000" filter="url(#g)" xlink:href="#e"/></g><g transform="translate(2 2)"><use fill="#000" filter="url(#h)" xlink:href="#i"/><use fill="url(#j)" xlink:href="#i"/><use fill="#000" filter="url(#k)" xlink:href="#i"/></g><g transform="translate(2 2)"><use fill="#000" filter="url(#l)" xlink:href="#m"/><use fill="url(#n)" xlink:href="#m"/><use fill="#000" filter="url(#o)" xlink:href="#m"/></g><g transform="translate(2 2)"><use fill="#000" filter="url(#p)" xlink:href="#q"/><use fill="url(#f)" xlink:href="#q"/><use fill="#000" filter="url(#r)" xlink:href="#q"/></g></g></svg>