<svg width="60" height="60" xmlns="http://www.w3.org/2000/svg"><path d="M29.988 13.657l1.1-1.899a2.47 2.47 0 013.376-.907 2.47 2.47 0 01.907 3.375L24.786 32.552h7.658c2.48 0 3.87 2.916 2.794 4.936h-22.44a2.463 2.463 0 01-2.467-2.468c0-1.367 1.1-2.468 2.467-2.468h6.29l8.057-13.96-2.516-4.366a2.473 2.473 0 01.907-3.375 2.473 2.473 0 013.375.907l1.077 1.9zm-9.52 26.371l-2.371 4.113a2.47 2.47 0 01-3.375.907 2.47 2.47 0 01-.907-3.375l1.766-3.048c1.984-.617 3.604-.145 4.887 1.403zm20.431-7.463h6.424c1.367 0 2.467 1.1 2.467 2.467s-1.1 2.468-2.467 2.468h-3.569l2.407 4.173a2.473 2.473 0 01-.907 3.375 2.473 2.473 0 01-3.375-.907c-4.052-7.028-7.1-12.29-9.12-15.798-2.07-3.569-.594-7.15.87-8.36 1.621 2.783 4.04 6.98 7.27 12.582zM30 0C13.427 0 0 13.427 0 30s13.427 30 30 30 30-13.427 30-30S46.573 0 30 0zm26.129 30c0 14.359-11.625 26.129-26.129 26.129C15.641 56.129 3.871 44.504 3.871 30 3.871 15.641 15.496 3.871 30 3.871c14.359 0 26.129 11.625 26.129 26.129z" fill="#FFF" fill-rule="nonzero"/></svg>